{
  "asset": {
    "version": "2.0",
    "generator": "Rapidimages"
  },
  "scene": 0,
  "scenes": [{
    "nodes": [0],
    "extensions": {}
  }],
  "nodes": [{
    "mesh": 0,
    "translation": [0.0, 0.0, 0.0],
    "rotation": [0.0, 0.0, 0.0, 1.0],
    "scale": [1.0, 1.0, 1.0],
    "name": "plane"
  }],
  "meshes": [{
    "primitives": [{
      "attributes": {
        "POSITION": 1,
        "NORMAL": 2,
        "TEXCOORD_0": 3
      },
      "indices": 0,
      "material" : 0
    }],
    "name": "plane"
  }],
 "materials" : [
  {
    "name": "ceiling",
    "pbrMetallicRoughness": {
      "baseColorFactor": [
        1,
        1,
        1,
        1
      ],
      "metallicFactor": 0,
      "roughnessFactor": 0.2
    },
    "emissiveFactor": [
      0,
      0,
      0
    ],
    "alphaMode": "OPAQUE",
    "doubleSided": false
  }
 ],
  "accessors": [{
    "bufferView": 0,
    "componentType": 5123,
    "count": 6,
    "type": "SCALAR",
    "name": "accessorIndices"
  }, {
    "bufferView": 1,
    "componentType": 5126,
    "count": 6,
    "max": [0.5, 0.0, 0.5],
    "min": [-0.5, 0.0, -0.5],
    "type": "VEC3",
    "name": "accessorPositions"
  }, {
    "bufferView": 1,
    "byteOffset": 72,
    "componentType": 5126,
    "count": 6,
    "type": "VEC3",
    "name": "accessorNormals"
  }, {
    "bufferView": 2,
    "componentType": 5126,
    "count": 6,
    "type": "VEC2",
    "name": "accessorUVs"
  }],
  "bufferViews": [{
    "buffer": 0,
    "byteLength": 12,
    "name": "bufferViewScalar"
  }, {
    "buffer": 0,
    "byteOffset": 12,
    "byteLength": 144,
    "byteStride": 12,
    "name": "bufferViewFloatVec3"
  }, {
    "buffer": 0,
    "byteOffset": 156,
    "byteLength": 48,
    "byteStride": 8,
    "name": "bufferViewFloatVec2"
  }],
  "buffers": [{
    "uri": "plane.bin",
    "byteLength": 204
  }],
  "extensionsUsed": ["KHR_texture_transform"],
  "extensionsRequired": ["KHR_texture_transform"]
}